<?xml version="1.0" standalone="no"?>
<!DOCTYPE svg PUBLIC "-//W3C//DTD SVG 20010904//EN"
 "http://www.w3.org/TR/2001/REC-SVG-20010904/DTD/svg10.dtd">
<svg version="1.0" xmlns="http://www.w3.org/2000/svg"
 width="700.000000pt" height="700.000000pt" viewBox="0 0 700.000000 700.000000"
 preserveAspectRatio="xMidYMid meet">
<metadata>
Created by potrace 1.11, written by Peter Selinger 2001-2013
</metadata>
<g transform="translate(0.000000,700.000000) scale(0.100000,-0.100000)"
fill="#000000" stroke="none">
<path d="M3189 6991 c-68 -22 -121 -71 -152 -140 -19 -44 -20 -67 -21 -671
l-1 -625 -322 -1 c-373 -1 -383 -3 -457 -85 -114 -127 -69 -316 94 -388 25
-11 37 -20 27 -20 -28 -1 -89 -36 -118 -68 -87 -92 -88 -240 -3 -327 37 -38
101 -76 131 -77 10 0 -1 -6 -23 -13 -58 -18 -110 -61 -142 -115 -22 -38 -27
-58 -27 -116 0 -58 5 -78 28 -117 31 -54 80 -94 134 -113 l38 -13 -30 -8 c-35
-8 -97 -51 -123 -85 -76 -97 -63 -239 30 -325 49 -46 105 -64 202 -64 l83 0
-4 -47 c-12 -133 -71 -290 -145 -386 -52 -66 -84 -97 -183 -177 -93 -76 -193
-174 -250 -245 -22 -28 -42 -52 -45 -55 -17 -17 -80 -115 -125 -195 -93 -164
-160 -355 -194 -553 -20 -118 -26 -373 -10 -477 5 -33 11 -73 13 -90 19 -126
72 -285 145 -440 233 -487 689 -832 1232 -931 62 -11 150 -18 259 -18 213 -1
321 11 475 55 674 192 1149 747 1232 1439 9 74 9 310 0 388 -19 165 -84 386
-157 533 -119 242 -258 416 -476 595 -208 171 -295 321 -318 545 l-5 57 97 4
c84 3 104 7 143 30 178 105 158 367 -33 435 l-47 17 41 14 c141 48 204 210
133 341 -32 58 -93 107 -146 118 l-32 6 51 19 c168 63 210 290 74 409 -70 62
-90 59 471 59 474 0 515 2 552 19 128 58 181 205 119 330 -33 65 -100 117
-164 127 -25 4 -270 8 -545 8 l-500 2 -47 46 c-102 98 -259 89 -354 -21 -22
-26 -24 -26 -158 -27 l-136 -1 -1 626 c0 569 -2 630 -17 669 -22 52 -69 104
-118 127 -42 20 -136 29 -175 16z m312 -3408 c2 -66 15 -172 24 -203 1 -3 5
-23 10 -45 13 -66 63 -195 110 -282 83 -156 184 -271 388 -441 126 -105 227
-231 298 -373 51 -102 76 -168 100 -270 97 -410 -20 -826 -316 -1124 -303
-305 -686 -417 -1130 -330 -60 12 -162 48 -250 90 -248 118 -473 350 -576 596
-18 40 -36 83 -40 94 -14 34 -47 167 -55 220 -3 28 -7 96 -9 152 -2 95 1 127
20 253 10 73 73 249 116 330 83 153 191 283 324 388 308 244 473 547 500 921
1 20 3 42 4 49 1 9 56 12 241 12 l240 0 1 -37z"/>
</g>
</svg>
