<?xml version="1.0" encoding="iso-8859-1"?>
<!-- Generator: Adobe Illustrator 19.0.0, SVG Export Plug-In . SVG Version: 6.00 Build 0)  -->
<svg xmlns="http://www.w3.org/2000/svg" xmlns:xlink="http://www.w3.org/1999/xlink" version="1.1" id="Layer_1" x="0px" y="0px" viewBox="0 0 512 512" style="enable-background:new 0 0 512 512;" xml:space="preserve" width="100" height="100">
<g>
	<path d="M377.424,349.902l-58.195-135.311c3.276-2.752,5.363-6.874,5.363-11.488v-95.537c0-8.284-6.716-15-15-15h-9.559V15   c0-8.284-6.716-15-15-15h-58.066c-8.284,0-15,6.716-15,15v77.566h-9.559c-8.284,0-15,6.716-15,15v95.537   c0,4.613,2.086,8.736,5.363,11.488l-58.195,135.311c-11.312,38.611-3.965,79.226,20.157,111.427   C178.855,493.531,215.766,512,256,512s77.145-18.469,101.267-50.671C381.389,429.128,388.735,388.514,377.424,349.902z M256,482   c-30.695,0-58.854-14.09-77.256-38.656c-18.227-24.331-23.899-54.956-15.623-84.158l60.804-141.082h10.982l4.759,11.042   l-57.64,134.2c-5.77,22.484-1.079,46.059,12.867,64.678c14.556,19.431,36.828,30.575,61.106,30.575s46.551-11.145,61.106-30.575   c0,0,0.001,0,0.001-0.001c13.945-18.618,18.636-42.192,12.866-64.677L285.95,260.739c-0.001-0.003-0.002-0.006-0.003-0.009   l-18.371-42.626h20.5l60.804,141.082c8.276,29.202,2.604,59.827-15.623,84.158C314.854,467.91,286.695,482,256,482z    M293.097,410.037c-8.837,11.796-22.358,18.562-37.097,18.562s-28.26-6.766-37.096-18.561   c-8.248-11.012-11.165-24.867-8.078-38.178L256,267.045l45.174,104.815C304.261,385.171,301.344,399.026,293.097,410.037   L293.097,410.037z M217.408,122.566h77.184v17.769h-77.184V122.566z M294.592,170.335v17.769h-77.184v-17.769H294.592z M241.967,30   h28.066v62.566h-28.066V30z"/>
</g>















</svg>
